<?xml version="1.0" encoding="UTF-8" standalone="no"?>
<svg
   xmlns:osb="http://www.openswatchbook.org/uri/2009/osb"
   xmlns:dc="http://purl.org/dc/elements/1.1/"
   xmlns:cc="http://creativecommons.org/ns#"
   xmlns:rdf="http://www.w3.org/1999/02/22-rdf-syntax-ns#"
   xmlns:svg="http://www.w3.org/2000/svg"
   xmlns="http://www.w3.org/2000/svg"
   xmlns:sodipodi="http://sodipodi.sourceforge.net/DTD/sodipodi-0.dtd"
   xmlns:inkscape="http://www.inkscape.org/namespaces/inkscape"
   width="508.53128"
   height="128.33461"
   viewBox="0 0 508.53128 128.33461"
   version="1.1"
   id="SVGRoot"
   sodipodi:docname="banner-logo-font-path.svg"
   inkscape:version="1.0.1 (3bc2e813f5, 2020-09-07)">
  <defs
     id="defs2316">
    <inkscape:path-effect
       effect="taper_stroke"
       id="path-effect3688"
       is_visible="true"
       lpeversion="1"
       stroke_width="6"
       attach_start="0.99350181"
       end_offset="0"
       smoothing="0.5"
       jointype="extrapolated"
       miter_limit="100" />
    <inkscape:path-effect
       effect="taper_stroke"
       id="path-effect3686"
       is_visible="true"
       lpeversion="1"
       stroke_width="6"
       attach_start="0.99350181"
       end_offset="0"
       smoothing="0.5"
       jointype="extrapolated"
       miter_limit="100" />
    <linearGradient
       id="linearGradient3561"
       osb:paint="solid">
      <stop
         style="stop-color:#005b8e;stop-opacity:1;"
         offset="0"
         id="stop3559" />
    </linearGradient>
    <inkscape:path-effect
       effect="taper_stroke"
       id="path-effect1305"
       is_visible="true"
       lpeversion="1"
       stroke_width="18.476657"
       attach_start="0.99350181"
       end_offset="1e-07"
       smoothing="0.5"
       jointype="extrapolated"
       miter_limit="100" />
    <inkscape:path-effect
       effect="taper_stroke"
       id="path-effect1283"
       is_visible="true"
       lpeversion="1"
       stroke_width="18.476657"
       attach_start="0.99350181"
       end_offset="1e-07"
       smoothing="0.5"
       jointype="extrapolated"
       miter_limit="100" />
    <filter
       inkscape:collect="always"
       style="color-interpolation-filters:sRGB"
       id="filter953"
       x="-5.5657492e-06"
       width="1.0000111"
       y="-4.2194747e-06"
       height="1.0000083">
      <feGaussianBlur
         inkscape:collect="always"
         stdDeviation="0.00010664063"
         id="feGaussianBlur955" />
    </filter>
    <filter
       inkscape:collect="always"
       style="color-interpolation-filters:sRGB"
       id="filter953-2"
       x="-5.5657492e-06"
       width="1.0000111"
       y="-4.2194747e-06"
       height="1.0000083">
      <feGaussianBlur
         inkscape:collect="always"
         stdDeviation="0.00010664063"
         id="feGaussianBlur955-5" />
    </filter>
  </defs>
  <sodipodi:namedview
     id="base"
     pagecolor="#ffffff"
     bordercolor="#666666"
     borderopacity="1.0"
     inkscape:pageopacity="0.0"
     inkscape:pageshadow="2"
     inkscape:zoom="1.4"
     inkscape:cx="243.73911"
     inkscape:cy="96.692191"
     inkscape:document-units="px"
     inkscape:current-layer="layer1"
     inkscape:document-rotation="0"
     showgrid="false"
     inkscape:window-width="1920"
     inkscape:window-height="1038"
     inkscape:window-x="0"
     inkscape:window-y="0"
     inkscape:window-maximized="1" />
  <metadata
     id="metadata2319">
    <rdf:RDF>
      <cc:Work
         rdf:about="">
        <dc:format>image/svg+xml</dc:format>
        <dc:type
           rdf:resource="http://purl.org/dc/dcmitype/StillImage" />
        <dc:title></dc:title>
      </cc:Work>
    </rdf:RDF>
  </metadata>
  <g
     inkscape:label="Layer 1"
     inkscape:groupmode="layer"
     id="layer1"
     transform="translate(-56.520915,-27.444024)">
    <g
       aria-label="engineering"
       transform="matrix(0.74841358,0,0,0.74841358,36.248627,56.403098)"
       id="text120-2"
       style="font-style:normal;font-variant:normal;font-weight:normal;font-stretch:normal;font-size:96px;line-height:1.25;font-family:'Estrangelo Antioch';-inkscape-font-specification:'Estrangelo Antioch, Normal';font-variant-ligatures:normal;font-variant-caps:normal;font-variant-numeric:normal;font-variant-east-asian:normal;letter-spacing:0px;word-spacing:0px;white-space:pre;inline-size:784.947;opacity:0.998;fill:#000000;fill-opacity:1;stroke:none;stroke-width:1;stroke-miterlimit:4;stroke-dasharray:none;filter:url(#filter953-2)">
      <path
         d="m 126.92188,104.14063 q 0,2.57812 -7.875,5.39062 -5.20313,1.82813 -10.64063,1.82813 -8.90625,0 -15.140625,-5.8125 Q 87.03125,99.734375 87.03125,90.875 q 0,-8.109375 5.953125,-13.546875 5.8125,-5.296875 13.968755,-5.296875 8.90625,0 14.4375,5.765625 5.53125,5.765625 5.4375,14.671875 H 90.640625 q 0.9375,7.03125 5.765625,11.20313 4.875,4.125 12,4.125 8.76563,0 15.42188,-4.78125 0.89062,-0.65625 1.40625,-0.65625 1.6875,0 1.6875,1.78125 z m -3.65625,-15.23438 q -1.07813,-6 -5.625,-9.609375 -4.54688,-3.65625 -10.6875,-3.65625 -6.1875,0 -10.687505,3.609375 -4.5,3.609375 -5.578125,9.65625 z"
         id="path2107" />
      <path
         d="m 186.96875,108.07813 q 0,1.96875 -2.625,1.96875 H 173.75 q -2.625,0 -2.625,-1.96875 0,-2.01563 2.625,-2.01563 h 3.32812 l -0.0469,-19.265625 q 0,-4.59375 -3.375,-7.359375 -3.14063,-2.578125 -7.82813,-2.578125 -4.78125,0 -8.48437,2.765625 -2.15625,1.59375 -6.42188,6.609375 l 0.0469,19.828125 h 3.32812 q 2.625,0 2.625,2.01563 0,1.96875 -2.625,1.96875 h -10.59375 q -2.625,0 -2.625,-1.96875 0,-2.01563 2.625,-2.01563 h 3.32813 l -0.0469,-27.796875 h -3.32812 q -2.625,0 -2.625,-2.015625 0,-1.96875 2.625,-1.96875 h 7.26562 v 5.953125 Q 158.1875,72.875 165.875,72.875 q 6,0 10.40625,3.5625 4.6875,3.796875 4.6875,9.703125 l 0.0469,19.921875 h 3.32813 q 2.625,0 2.625,2.01563 z"
         id="path2109" />
      <path
         d="m 246.82812,76.25 q 0,2.015625 -2.625,2.015625 H 240.875 l 0.0469,39.140625 q 0,6.375 -4.78125,10.875 -4.78125,4.5 -11.20312,4.5 h -11.15625 q -2.625,0 -2.625,-1.96875 0,-2.01563 2.625,-2.01563 l 11.29687,0.0469 q 7.21875,0.0469 10.875,-6.98437 1.03125,-1.92188 1.03125,-5.01563 l 0.0937,-13.54687 Q 230.98437,111.5 220.90625,111.5 q -8.25,0 -14.0625,-5.67187 -5.8125,-5.71875 -5.8125,-13.968755 0,-8.25 5.8125,-13.96875 5.8125,-5.71875 14.0625,-5.71875 9.9375,0 16.03125,8.109375 v -6 h 7.26562 q 2.625,0 2.625,1.96875 z m -9.65625,15.609375 q 0,-6.75 -4.78125,-11.390625 -4.73437,-4.6875 -11.53125,-4.6875 -6.75,0 -11.53125,4.6875 -4.73437,4.640625 -4.73437,11.390625 0,6.703125 4.78125,11.390625 4.78125,4.6875 11.48437,4.6875 6.75,0 11.53125,-4.64062 4.78125,-4.687505 4.78125,-11.437505 z"
         id="path2111" />
      <path
         d="m 271.90625,64.90625 h -5.8125 V 54.734375 h 5.8125 z m -3.9375,41.15625 V 78.265625 h -3.32813 q -2.625,0 -2.625,-2.015625 0,-1.96875 2.625,-1.96875 h 7.26563 v 31.78125 z m 7.35937,0 q 2.625,0 2.625,2.01563 0,1.96875 -2.625,1.96875 h -10.59375 q -2.625,0 -2.625,-1.96875 0,-2.01563 2.625,-2.01563 z"
         id="path2113" />
      <path
         d="m 337.90625,108.07813 q 0,1.96875 -2.625,1.96875 H 324.6875 q -2.625,0 -2.625,-1.96875 0,-2.01563 2.625,-2.01563 h 3.32812 l -0.0469,-19.265625 q 0,-4.59375 -3.375,-7.359375 -3.14063,-2.578125 -7.82813,-2.578125 -4.78125,0 -8.48437,2.765625 -2.15625,1.59375 -6.42188,6.609375 l 0.0469,19.828125 h 3.32812 q 2.625,0 2.625,2.01563 0,1.96875 -2.625,1.96875 h -10.59375 q -2.625,0 -2.625,-1.96875 0,-2.01563 2.625,-2.01563 h 3.32813 l -0.0469,-27.796875 h -3.32812 q -2.625,0 -2.625,-2.015625 0,-1.96875 2.625,-1.96875 h 7.26562 v 5.953125 Q 309.125,72.875 316.8125,72.875 q 6,0 10.40625,3.5625 4.6875,3.796875 4.6875,9.703125 l 0.0469,19.921875 h 3.32813 q 2.625,0 2.625,2.01563 z"
         id="path2115" />
      <path
         d="m 391.85937,104.14063 q 0,2.57812 -7.875,5.39062 -5.20312,1.82813 -10.64062,1.82813 -8.90625,0 -15.14063,-5.8125 -6.23437,-5.812505 -6.23437,-14.67188 0,-8.109375 5.95312,-13.546875 5.8125,-5.296875 13.96875,-5.296875 8.90625,0 14.4375,5.765625 5.53125,5.765625 5.4375,14.671875 h -36.1875 q 0.9375,7.03125 5.76563,11.20313 4.875,4.125 12,4.125 8.76562,0 15.42187,-4.78125 0.89063,-0.65625 1.40625,-0.65625 1.6875,0 1.6875,1.78125 z m -3.65625,-15.23438 q -1.07812,-6 -5.625,-9.609375 -4.54687,-3.65625 -10.6875,-3.65625 -6.1875,0 -10.6875,3.609375 -4.5,3.609375 -5.57812,9.65625 z"
         id="path2117" />
      <path
         d="m 445.76562,104.14063 q 0,2.57812 -7.875,5.39062 -5.20312,1.82813 -10.64062,1.82813 -8.90625,0 -15.14063,-5.8125 Q 405.875,99.734375 405.875,90.875 q 0,-8.109375 5.95312,-13.546875 5.8125,-5.296875 13.96875,-5.296875 8.90625,0 14.4375,5.765625 5.53125,5.765625 5.4375,14.671875 h -36.1875 q 0.9375,7.03125 5.76563,11.20313 4.875,4.125 12,4.125 8.76562,0 15.42187,-4.78125 0.89063,-0.65625 1.40625,-0.65625 1.6875,0 1.6875,1.78125 z m -3.65625,-15.23438 q -1.07812,-6 -5.625,-9.609375 -4.54687,-3.65625 -10.6875,-3.65625 -6.1875,0 -10.6875,3.609375 -4.5,3.609375 -5.57812,9.65625 z"
         id="path2119" />
      <path
         d="m 497.79687,79.25 q 0,2.0625 -2.0625,2.0625 -0.70312,0 -2.95312,-2.015625 -2.25,-2.0625 -4.3125,-2.0625 -3.79688,0 -10.125,4.734375 -2.39063,1.78125 -8.67188,7.40625 v 16.73438 q 3.9375,0 3.5625,-0.0469 2.39063,0.28125 2.39063,2.01563 0,1.96875 -2.625,1.96875 h -10.54688 q -2.67187,0 -2.67187,-1.96875 0,-1.73438 2.39062,-2.01563 -0.375,0.0469 3.5625,0.0469 V 78.265625 q -3.89062,0 -3.60937,0.04687 -2.34375,-0.28125 -2.34375,-2.0625 0,-1.96875 2.625,-1.96875 h 7.26562 v 9.9375 q 5.67188,-5.109375 8.48438,-7.03125 5.625,-3.890625 10.07812,-3.890625 2.39063,0 5.8125,1.875 3.75,2.0625 3.75,4.078125 z"
         id="path2121" />
      <path
         d="m 521.84375,64.90625 h -5.8125 V 54.734375 h 5.8125 z m -3.9375,41.15625 V 78.265625 h -3.32813 q -2.625,0 -2.625,-2.015625 0,-1.96875 2.625,-1.96875 h 7.26563 v 31.78125 z m 7.35937,0 q 2.625,0 2.625,2.01563 0,1.96875 -2.625,1.96875 h -10.59375 q -2.625,0 -2.625,-1.96875 0,-2.01563 2.625,-2.01563 z"
         id="path2123" />
      <path
         d="m 587.84375,108.07813 q 0,1.96875 -2.625,1.96875 H 574.625 q -2.625,0 -2.625,-1.96875 0,-2.01563 2.625,-2.01563 h 3.32812 l -0.0469,-19.265625 q 0,-4.59375 -3.375,-7.359375 -3.14063,-2.578125 -7.82813,-2.578125 -4.78125,0 -8.48437,2.765625 -2.15625,1.59375 -6.42188,6.609375 l 0.0469,19.828125 h 3.32812 q 2.625,0 2.625,2.01563 0,1.96875 -2.625,1.96875 h -10.59375 q -2.625,0 -2.625,-1.96875 0,-2.01563 2.625,-2.01563 h 3.32813 l -0.0469,-27.796875 h -3.32812 q -2.625,0 -2.625,-2.015625 0,-1.96875 2.625,-1.96875 h 7.26562 v 5.953125 Q 559.0625,72.875 566.75,72.875 q 6,0 10.40625,3.5625 4.6875,3.796875 4.6875,9.703125 l 0.0469,19.921875 h 3.32813 q 2.625,0 2.625,2.01563 z"
         id="path2125" />
      <path
         d="m 647.70312,76.25 q 0,2.015625 -2.625,2.015625 H 641.75 l 0.0469,39.140625 q 0,6.375 -4.78125,10.875 -4.78125,4.5 -11.20312,4.5 h -11.15625 q -2.625,0 -2.625,-1.96875 0,-2.01563 2.625,-2.01563 l 11.29687,0.0469 q 7.21875,0.0469 10.875,-6.98437 1.03125,-1.92188 1.03125,-5.01563 l 0.0937,-13.54687 Q 631.85937,111.5 621.78125,111.5 q -8.25,0 -14.0625,-5.67187 -5.8125,-5.71875 -5.8125,-13.968755 0,-8.25 5.8125,-13.96875 5.8125,-5.71875 14.0625,-5.71875 9.9375,0 16.03125,8.109375 v -6 h 7.26562 q 2.625,0 2.625,1.96875 z m -9.65625,15.609375 q 0,-6.75 -4.78125,-11.390625 -4.73437,-4.6875 -11.53125,-4.6875 -6.75,0 -11.53125,4.6875 -4.73437,4.640625 -4.73437,11.390625 0,6.703125 4.78125,11.390625 4.78125,4.6875 11.48437,4.6875 6.75,0 11.53125,-4.64062 4.78125,-4.687505 4.78125,-11.437505 z"
         id="path2127" />
    </g>
    <g
       aria-label="bracket"
       transform="matrix(0.74841358,0,0,0.74841358,35.565547,-4.2188423)"
       id="text120"
       style="font-style:normal;font-variant:normal;font-weight:normal;font-stretch:normal;font-size:96px;line-height:1.25;font-family:'Estrangelo Antioch';-inkscape-font-specification:'Estrangelo Antioch, Normal';font-variant-ligatures:normal;font-variant-caps:normal;font-variant-numeric:normal;font-variant-east-asian:normal;letter-spacing:0px;word-spacing:0px;white-space:pre;inline-size:699.177;opacity:0.998;fill:#000000;fill-opacity:1;stroke:none;stroke-width:1;stroke-miterlimit:4;stroke-dasharray:none;filter:url(#filter953)">
      <path
         d="m 132.82812,92.421875 q 0,8.250005 -5.81249,13.968755 -5.76563,5.71875 -14.01563,5.71875 -10.21875,0 -16.265625,-8.34375 V 110 H 89.46875 q -2.625,0 -2.625,-1.96875 0,-2.01562 2.625,-2.01562 h 3.328125 V 55.4375 H 89.46875 q -2.625,0 -2.625,-2.015625 0,-1.96875 2.625,-1.96875 h 7.265625 l 0.04687,29.625 Q 102.82813,72.78125 113,72.78125 q 8.25,0 14.01563,5.71875 5.81249,5.71875 5.81249,13.921875 z m -3.5625,0 q 0,-6.75 -4.78124,-11.390625 -4.78125,-4.6875 -11.53125,-4.6875 -6.70313,0 -11.48438,4.6875 -4.78125,4.6875 -4.78125,11.390625 0,6.75 4.73438,11.437505 4.78125,4.64062 11.53125,4.64062 6.79687,0 11.53125,-4.64062 4.78124,-4.687505 4.78124,-11.437505 z"
         id="path2130" />
      <path
         d="m 182.65625,79.25 q 0,2.0625 -2.0625,2.0625 -0.70313,0 -2.95313,-2.015625 -2.25,-2.0625 -4.3125,-2.0625 -3.79687,0 -10.125,4.734375 -2.39062,1.78125 -8.67187,7.40625 v 16.73438 q 3.9375,0 3.5625,-0.0469 2.39062,0.28125 2.39062,2.01563 0,1.96875 -2.625,1.96875 H 147.3125 q -2.67188,0 -2.67188,-1.96875 0,-1.73438 2.39063,-2.01563 -0.375,0.0469 3.5625,0.0469 V 78.265625 q -3.89063,0 -3.60938,0.04687 -2.34375,-0.28125 -2.34375,-2.0625 0,-1.96875 2.625,-1.96875 h 7.26563 v 9.9375 q 5.67187,-5.109375 8.48437,-7.03125 5.625,-3.890625 10.07813,-3.890625 2.39062,0 5.8125,1.875 3.75,2.0625 3.75,4.078125 z"
         id="path2132" />
      <path
         d="m 236.46875,108.03125 q 0,1.96875 -2.625,1.96875 h -6.89063 v -5.10937 q -7.73437,6.51562 -16.54687,6.51562 -5.57813,0 -9.32813,-2.71875 -4.26562,-3.04687 -4.26562,-8.4375 0,-6.609375 6.375,-10.078125 5.10937,-2.8125 12.23437,-2.8125 5.0625,0 11.53125,1.3125 V 82.90625 q 0,-3.796875 -3.75,-5.71875 -2.90625,-1.5 -7.07812,-1.5 -2.67188,0 -7.6875,1.453125 -4.96875,1.40625 -5.67188,1.40625 -1.64062,0 -1.64062,-1.78125 0,-0.65625 0.42187,-1.171875 0.79688,-0.9375 6.89063,-2.25 5.67187,-1.265625 7.875,-1.265625 5.4375,0 9.51562,2.625 4.73438,3 4.73438,8.203125 l -0.0469,23.10938 h 3.32813 q 2.625,0 2.625,2.01562 z m -9.51563,-7.875 v -7.828125 q -4.82812,-1.40625 -11.15625,-1.40625 -5.48437,0 -9.79687,1.96875 -5.625,2.53125 -5.625,7.359375 0,3.84375 3.14062,5.85938 2.67188,1.73437 6.75,1.73437 8.67188,0 16.6875,-7.6875 z"
         id="path2134" />
      <path
         d="m 289.76562,102.54688 q 0,1.82812 -4.3125,4.64062 -6.84375,4.5 -15.32812,4.5 -8.57813,0 -14.10938,-5.39062 -5.53125,-5.4375 -5.53125,-13.968755 0,-8.625 5.625,-14.25 5.625,-5.671875 14.25,-5.671875 8.15625,0 13.73438,4.875 v -1.546875 q 0.0469,-2.0625 1.73437,-2.0625 1.82813,0 1.82813,2.390625 v 8.0625 q 0,2.390625 -1.82813,2.390625 -0.70312,0 -1.17187,-0.46875 L 283.8125,83.28125 q -0.70313,-2.390625 -3.70313,-4.59375 -3.65625,-2.671875 -9.9375,-2.671875 -7.21875,0 -11.67187,4.546875 -4.45313,4.5 -4.45313,11.71875 0,7.078125 4.54688,11.48438 4.59375,4.40625 11.67187,4.40625 8.90625,0 16.21875,-6.46875 0.98438,-0.84375 1.54688,-0.84375 1.73437,0 1.73437,1.6875 z"
         id="path2136" />
      <path
         d="m 344.65625,108.07813 q 0,1.96875 -2.625,1.96875 H 329.9375 q -2.625,0 -2.625,-1.96875 0,-2.01563 2.625,-2.01563 h 3.32812 l -16.92187,-17.390625 -4.5,3.796875 0.0469,13.59375 h 3.32813 q 2.625,0 2.625,2.01563 0,1.96875 -2.625,1.96875 h -10.6875 q -2.625,0 -2.625,-1.96875 0,-2.01563 2.625,-2.01563 h 3.32812 l 0.0469,-50.90625 h -3.32813 q -2.625,0 -2.625,-2.015625 0,-1.96875 2.625,-1.96875 h 7.26563 v 36.28125 l 16.73437,-14.0625 H 325.25 q -2.625,0 -2.625,-2.015625 0,-1.96875 2.625,-1.96875 h 12.70312 q 2.625,0 2.625,1.96875 0,2.015625 -2.625,2.015625 H 334.625 l -15.375,12.84375 19.45312,19.828125 h 3.32813 q 2.625,0 2.625,2.01563 z"
         id="path2138" />
      <path
         d="m 398.5625,104.14063 q 0,2.57812 -7.875,5.39062 -5.20313,1.82813 -10.64063,1.82813 -8.90625,0 -15.14062,-5.8125 -6.23438,-5.812505 -6.23438,-14.67188 0,-8.109375 5.95313,-13.546875 5.8125,-5.296875 13.96875,-5.296875 8.90625,0 14.4375,5.765625 5.53125,5.765625 5.4375,14.671875 h -36.1875 q 0.9375,7.03125 5.76562,11.20313 4.875,4.125 12,4.125 8.76563,0 15.42188,-4.78125 0.89062,-0.65625 1.40625,-0.65625 1.6875,0 1.6875,1.78125 z m -3.65625,-15.23438 q -1.07813,-6 -5.625,-9.609375 -4.54688,-3.65625 -10.6875,-3.65625 -6.1875,0 -10.6875,3.609375 -4.5,3.609375 -5.57813,9.65625 z"
         id="path2140" />
      <path
         d="m 453.5,105.07813 q 0,2.29687 -6,4.64062 -4.64063,1.82813 -8.76563,1.82813 -5.85937,0 -9.79687,-3 -4.3125,-3.28125 -4.3125,-8.95313 l -0.0469,-21.328125 h -9.60937 q -2.625,0 -2.625,-2.015625 0,-1.96875 2.625,-1.96875 h 9.60937 l 0.0469,-16.5 q 0,-2.625 1.96875,-2.625 2.01562,0 2.01562,2.625 l -0.0469,16.5 h 19.03125 q 2.625,0 2.625,2.015625 0,1.96875 -2.625,1.96875 H 428.5625 l 0.0469,21.328125 q 0,3.84375 3.09375,6.04688 2.76563,1.96875 6.75,1.96875 1.73438,0 6.28125,-1.21875 0.98438,-0.23438 3.89063,-1.82813 2.71875,-1.45312 3,-1.45312 1.875,0 1.875,1.96875 z"
         id="path2142" />
    </g>
    <g
       id="g3702"
       transform="matrix(0.27918233,0,0,0.27918233,514.93372,22.216112)">
      <path
         style="fill:none;stroke:#005b8e;stroke-width:18.4767;stroke-linecap:round;stroke-linejoin:round;stroke-miterlimit:0;stroke-dasharray:none;stroke-opacity:1"
         d="M 31.705996,28.215154 170.28044,243.77689"
         id="path96-3" />
      <path
         style="fill:#005b8e;fill-rule:nonzero;stroke:none;stroke-width:6.15889;stroke-linecap:round;stroke-linejoin:miter;stroke-miterlimit:0;stroke-dasharray:none;stroke-opacity:1"
         d="M 161.60886,240.18198 C 92.771878,347.26247 31.705996,459.33863 31.705996,459.33863 c 0,0 76.608084,-102.08482 145.445064,-209.16531 l 0.90046,-1.40074 -15.54219,-9.99134 z"
         id="path98-6"
         inkscape:path-effect="#path-effect1283"
         inkscape:original-d="M 31.705996,459.33863 170.28044,243.77689" />
    </g>
    <g
       id="g3817"
       transform="matrix(0.27918233,0,0,0.27918233,178.93372,22.216112)">
      <path
         style="fill:none;stroke:#005b8e;stroke-width:18.4767;stroke-linecap:round;stroke-linejoin:round;stroke-miterlimit:0;stroke-dasharray:none;stroke-opacity:1"
         d="M -290.65623,449.84926 -429.23068,234.28753"
         id="path96-3-0" />
      <path
         style="fill:#005b8e;fill-rule:nonzero;stroke:none;stroke-width:6.15889;stroke-linecap:round;stroke-linejoin:miter;stroke-miterlimit:4;stroke-dasharray:none;stroke-opacity:1"
         d="M -420.5591,237.88244 C -351.72211,130.80196 -290.65623,18.7258 -290.65623,18.7258 c 0,0 -76.60808,102.08481 -145.44507,209.1653 l -0.90046,1.40074 15.54219,9.99134 z"
         id="path98-6-2"
         inkscape:path-effect="#path-effect1305"
         inkscape:original-d="M -290.65623,18.7258 -429.23068,234.28753" />
    </g>
  </g>
</svg>
